<?xml version="1.0" standalone="no"?>
<!DOCTYPE svg PUBLIC "-//W3C//DTD SVG 20010904//EN"
 "http://www.w3.org/TR/2001/REC-SVG-20010904/DTD/svg10.dtd">
<svg version="1.0" xmlns="http://www.w3.org/2000/svg"
 width="300.000000pt" height="300.000000pt" viewBox="0 0 300.000000 300.000000"
 preserveAspectRatio="xMidYMid meet">
<metadata>
Created by potrace 1.10, written by Peter Selinger 2001-2011
</metadata>
<g transform="translate(0.000000,300.000000) scale(0.100000,-0.100000)"
fill="#000000" stroke="none">
<path d="M1027 1504 c-16 -17 -7 -44 16 -44 21 0 22 -4 22 -57 l0 -58 50 0 50
0 -3 57 c-2 52 0 57 20 60 15 2 23 10 23 23 0 18 -8 20 -85 23 -47 1 -89 0
-93 -4z"/>
<path d="M1237 1504 c-4 -4 -7 -43 -7 -86 l0 -78 50 0 51 0 -3 83 -3 82 -40 3
c-23 2 -44 0 -48 -4z"/>
<path d="M1382 1494 c-30 -21 -28 -49 8 -76 38 -28 38 -41 1 -33 -33 7 -49 -8
-32 -29 28 -33 151 -25 165 10 12 31 6 45 -29 65 -41 24 -46 44 -10 35 29 -7
48 20 24 35 -23 14 -103 10 -127 -7z"/>
<path d="M1593 1500 c-45 -18 -60 -103 -24 -139 39 -39 156 -35 156 4 0 14 -7
20 -25 21 -43 1 -48 3 -53 26 -10 36 10 61 44 54 32 -6 46 8 29 29 -14 17 -91
19 -127 5z"/>
<path d="M1810 1503 c-34 -13 -60 -47 -60 -78 0 -44 24 -73 72 -86 107 -28
198 63 136 136 -20 23 -34 29 -79 31 -30 2 -61 1 -69 -3z m94 -56 c18 -13 14
-42 -7 -50 -16 -6 -57 10 -57 22 0 11 28 41 39 41 4 0 15 -6 25 -13z"/>
<path d="M1450 1182 c0 -9 -12 -35 -26 -55 -30 -45 -22 -65 10 -24 15 19 31
27 53 27 31 0 31 -1 22 -32 -5 -17 -20 -43 -34 -58 -28 -30 -31 -40 -11 -40
21 0 54 46 66 91 9 34 14 39 40 39 17 0 30 5 30 13 0 9 -18 11 -66 9 l-67 -4
7 26 c5 19 3 26 -9 26 -8 0 -15 -8 -15 -18z"/>
<path d="M1940 1100 c0 -60 4 -100 10 -100 6 0 10 25 10 55 l0 55 38 -16 c20
-9 43 -18 50 -21 6 -3 12 1 12 9 0 8 -22 22 -50 32 -47 17 -50 20 -50 52 0 19
-4 34 -10 34 -6 0 -10 -40 -10 -100z"/>
<path d="M920 1160 c0 -6 36 -10 87 -10 l87 0 -39 -40 -39 -40 -21 20 c-23 21
-35 25 -35 11 0 -11 90 -101 101 -101 15 0 10 16 -11 35 -20 18 -19 18 25 66
25 27 45 53 45 59 0 6 -37 10 -100 10 -60 0 -100 -4 -100 -10z"/>
<path d="M1724 1128 c3 -13 6 -26 6 -30 0 -5 7 -8 14 -8 12 0 13 6 5 30 -13
35 -34 41 -25 8z"/>
<path d="M1668 1134 c-9 -8 12 -64 24 -64 6 0 7 11 3 28 -7 30 -18 45 -27 36z"/>
<path d="M1786 1095 c-13 -32 -30 -52 -58 -69 -24 -14 -35 -26 -29 -31 29 -18
121 80 121 129 0 29 -15 17 -34 -29z"/>
<path d="M1160 1100 c0 -6 40 -10 100 -10 60 0 100 4 100 10 0 6 -40 10 -100
10 -60 0 -100 -4 -100 -10z"/>
</g>
</svg>
