<?xml version="1.0" standalone="no"?>
<!DOCTYPE svg PUBLIC "-//W3C//DTD SVG 20010904//EN"
 "http://www.w3.org/TR/2001/REC-SVG-20010904/DTD/svg10.dtd">
<svg version="1.0" xmlns="http://www.w3.org/2000/svg"
 width="300.000000pt" height="300.000000pt" viewBox="0 0 300.000000 300.000000"
 preserveAspectRatio="xMidYMid meet">
<metadata>
Created by potrace 1.10, written by Peter Selinger 2001-2011
</metadata>
<g transform="translate(0.000000,300.000000) scale(0.100000,-0.100000)"
fill="#000000" stroke="none">
<path d="M1936 1506 c-3 -14 -17 -38 -31 -54 -18 -22 -22 -33 -14 -38 7 -4 20
4 31 19 22 31 78 39 78 12 0 -24 -28 -72 -51 -88 -14 -10 -17 -17 -9 -22 23
-14 80 60 80 105 0 16 6 20 36 20 23 0 34 4 32 12 -3 8 -27 11 -71 9 l-68 -2
7 25 c3 15 2 26 -4 26 -5 0 -13 -11 -16 -24z"/>
<path d="M2429 1528 c0 -2 -1 -47 -2 -101 -2 -72 1 -97 11 -97 8 0 12 18 12
54 l0 55 46 -20 c25 -12 48 -18 52 -15 9 10 -10 24 -53 39 -36 12 -40 18 -43
50 -2 21 -7 37 -13 37 -5 0 -9 -1 -10 -2z"/>
<path d="M427 1504 c-16 -17 -7 -44 16 -44 21 0 22 -4 22 -57 l0 -58 50 0 50
0 -3 57 c-2 52 0 57 20 60 15 2 23 10 23 23 0 18 -8 20 -85 23 -47 1 -89 0
-93 -4z"/>
<path d="M637 1504 c-4 -4 -7 -43 -7 -86 l0 -78 50 0 51 0 -3 83 -3 82 -40 3
c-23 2 -44 0 -48 -4z"/>
<path d="M782 1494 c-30 -21 -28 -49 8 -76 38 -28 38 -41 1 -33 -33 7 -49 -8
-32 -29 28 -33 151 -25 165 10 12 31 6 45 -29 65 -41 24 -46 44 -10 35 29 -7
48 20 24 35 -23 14 -103 10 -127 -7z"/>
<path d="M993 1500 c-45 -18 -60 -103 -24 -139 39 -39 156 -35 156 4 0 14 -7
20 -25 21 -43 1 -48 3 -53 26 -10 36 10 61 44 54 32 -6 46 8 29 29 -14 17 -91
19 -127 5z"/>
<path d="M1210 1503 c-34 -13 -60 -47 -60 -78 0 -44 24 -73 72 -86 107 -28
198 63 136 136 -20 23 -34 29 -79 31 -30 2 -61 1 -69 -3z m94 -56 c18 -13 14
-42 -7 -50 -16 -6 -57 10 -57 22 0 11 28 41 39 41 4 0 15 -6 25 -13z"/>
<path d="M1410 1490 c0 -6 33 -10 80 -10 44 0 80 -3 80 -7 0 -4 -14 -22 -32
-40 l-31 -32 -27 19 c-49 35 -41 7 12 -42 29 -26 56 -48 60 -48 14 0 9 16 -12
35 -19 17 -19 18 25 67 25 28 45 54 45 59 0 5 -45 9 -100 9 -60 0 -100 -4
-100 -10z"/>
<path d="M2208 1475 c-8 -9 12 -55 24 -55 4 0 8 6 8 13 0 18 -24 50 -32 42z"/>
<path d="M2156 1461 c-9 -14 12 -63 23 -56 6 3 6 17 -1 35 -11 32 -14 35 -22
21z"/>
<path d="M2280 1446 c0 -29 -44 -84 -77 -97 -12 -5 -23 -13 -23 -19 0 -34 82
25 110 80 24 47 25 60 5 60 -9 0 -15 -9 -15 -24z"/>
<path d="M1650 1430 c0 -6 38 -10 95 -10 57 0 95 4 95 10 0 6 -38 10 -95 10
-57 0 -95 -4 -95 -10z"/>
</g>
</svg>
