<?xml version="1.0" standalone="no"?>
<!DOCTYPE svg PUBLIC "-//W3C//DTD SVG 20010904//EN"
 "http://www.w3.org/TR/2001/REC-SVG-20010904/DTD/svg10.dtd">
<svg version="1.0" xmlns="http://www.w3.org/2000/svg"
 width="300.000000pt" height="300.000000pt" viewBox="0 0 300.000000 300.000000"
 preserveAspectRatio="xMidYMid meet">
<metadata>
Created by potrace 1.10, written by Peter Selinger 2001-2011
</metadata>
<g transform="translate(0.000000,300.000000) scale(0.100000,-0.100000)"
fill="#000000" stroke="none">
<path d="M1027 1504 c-16 -17 -7 -44 16 -44 21 0 22 -4 22 -57 l0 -58 50 0 50
0 -3 57 c-2 52 0 57 20 60 15 2 23 10 23 23 0 18 -8 20 -85 23 -47 1 -89 0
-93 -4z"/>
<path d="M1237 1504 c-4 -4 -7 -43 -7 -86 l0 -78 50 0 51 0 -3 83 -3 82 -40 3
c-23 2 -44 0 -48 -4z"/>
<path d="M1382 1494 c-30 -21 -28 -49 8 -76 38 -28 38 -41 1 -33 -33 7 -49 -8
-32 -29 28 -33 151 -25 165 10 12 31 6 45 -29 65 -41 24 -46 44 -10 35 29 -7
48 20 24 35 -23 14 -103 10 -127 -7z"/>
<path d="M1593 1500 c-45 -18 -60 -103 -24 -139 39 -39 156 -35 156 4 0 14 -7
20 -25 21 -43 1 -48 3 -53 26 -10 36 10 61 44 54 32 -6 46 8 29 29 -14 17 -91
19 -127 5z"/>
<path d="M1810 1503 c-34 -13 -60 -47 -60 -78 0 -44 24 -73 72 -86 107 -28
198 63 136 136 -20 23 -34 29 -79 31 -30 2 -61 1 -69 -3z m94 -56 c18 -13 14
-42 -7 -50 -16 -6 -57 10 -57 22 0 11 28 41 39 41 4 0 15 -6 25 -13z"/>
</g>
</svg>
